<svg width="513" height="512" viewBox="0 0 513 512" fill="none" xmlns="http://www.w3.org/2000/svg">
  <style>
    path:first-child {
      fill: hsl(210, 9%, 10%);
    }

    path:last-child {
      fill: hsl(210, 9%, 96%);
    }

    @media (prefers-color-scheme: dark) {
      path:first-child {
        fill: hsl(210, 8%, 96%);
      }

      path:last-child {
        fill: hsl(210, 8%, 5%);
      }
    }
  </style>

  <g clip-path="url(#clip0_104:25)">
    <path 
      d="M0.0688477 187.187C0.0688477 33.0385 33.1074 0 187.256 0H324.882C479.03 0 512.069 33.0385 512.069 187.187V324.813C512.069 478.961 479.03 512 324.882 512H187.256C33.1074 512 0.0688477 478.961 0.0688477 324.813V187.187Z" 
    />
    <path 
      d="M118.374 316C116.614 316 115.323 315.589 114.502 314.768C113.68 313.829 112.976 312.773 112.39 311.6L79.1257 229.936C78.891 229.467 78.7737 228.939 78.7737 228.352C78.7737 227.296 79.1257 226.416 79.8297 225.712C80.651 224.891 81.6484 224.48 82.8217 224.48H102.71C104.235 224.48 105.408 224.891 106.23 225.712C107.051 226.533 107.579 227.355 107.814 228.176L127.702 282.208L147.766 228.176C148 227.355 148.528 226.533 149.35 225.712C150.171 224.891 151.344 224.48 152.87 224.48H172.758C173.814 224.48 174.752 224.891 175.574 225.712C176.395 226.416 176.806 227.296 176.806 228.352C176.806 228.939 176.688 229.467 176.454 229.936L143.19 311.6C142.72 312.773 142.016 313.829 141.078 314.768C140.256 315.589 138.907 316 137.03 316H118.374ZM228.854 316C227.68 316 226.624 315.589 225.686 314.768C224.864 313.829 224.454 312.773 224.454 311.6V227.824L200.342 246.304C199.286 247.125 198.171 247.419 196.998 247.184C195.942 246.949 195.003 246.304 194.182 245.248L183.798 231.696C183.094 230.64 182.8 229.525 182.918 228.352C183.152 227.061 183.856 226.064 185.03 225.36L225.51 194.032C226.214 193.563 226.859 193.269 227.446 193.152C228.15 192.917 228.912 192.8 229.734 192.8H251.734C253.024 192.8 254.08 193.211 254.902 194.032C255.723 194.853 256.134 195.909 256.134 197.2V311.6C256.134 312.773 255.723 313.829 254.902 314.768C254.08 315.589 253.024 316 251.734 316H228.854ZM327.25 317.76C318.802 317.76 311.469 316.587 305.25 314.24C299.149 311.776 294.045 308.432 289.938 304.208C285.831 299.984 282.722 295.056 280.61 289.424C278.498 283.792 277.266 277.749 276.914 271.296C276.797 268.128 276.679 264.549 276.562 260.56C276.562 256.453 276.562 252.347 276.562 248.24C276.679 244.016 276.797 240.261 276.914 236.976C277.266 230.523 278.498 224.539 280.61 219.024C282.839 213.392 286.007 208.523 290.114 204.416C294.338 200.192 299.501 196.907 305.602 194.56C311.821 192.213 319.037 191.04 327.25 191.04C335.581 191.04 342.797 192.213 348.898 194.56C355.117 196.907 360.279 200.192 364.386 204.416C368.493 208.523 371.661 213.392 373.89 219.024C376.119 224.539 377.41 230.523 377.762 236.976C377.879 240.261 377.938 244.016 377.938 248.24C378.055 252.347 378.055 256.453 377.938 260.56C377.938 264.549 377.879 268.128 377.762 271.296C377.41 277.749 376.119 283.792 373.89 289.424C371.778 295.056 368.669 299.984 364.562 304.208C360.573 308.432 355.469 311.776 349.25 314.24C343.149 316.587 335.815 317.76 327.25 317.76ZM327.25 292.24C333.351 292.24 337.751 290.304 340.45 286.432C343.266 282.443 344.733 277.104 344.85 270.416C345.085 267.013 345.202 263.435 345.202 259.68C345.319 255.925 345.319 252.171 345.202 248.416C345.202 244.661 345.085 241.2 344.85 238.032C344.733 231.579 343.266 226.357 340.45 222.368C337.751 218.379 333.351 216.325 327.25 216.208C321.266 216.325 316.866 218.379 314.05 222.368C311.351 226.357 309.885 231.579 309.65 238.032C309.65 241.2 309.591 244.661 309.474 248.416C309.474 252.171 309.474 255.925 309.474 259.68C309.591 263.435 309.65 267.013 309.65 270.416C309.885 277.104 311.41 282.443 314.226 286.432C317.042 290.304 321.383 292.24 327.25 292.24ZM401.995 316C400.704 316 399.648 315.589 398.827 314.768C398.006 313.829 397.595 312.773 397.595 311.6V228.88C397.595 227.589 398.006 226.533 398.827 225.712C399.648 224.891 400.704 224.48 401.995 224.48H422.763C424.054 224.48 425.11 224.891 425.931 225.712C426.752 226.533 427.163 227.589 427.163 228.88V311.6C427.163 312.773 426.752 313.829 425.931 314.768C425.11 315.589 424.054 316 422.763 316H401.995ZM401.819 211.28C400.528 211.28 399.472 210.869 398.651 210.048C397.83 209.227 397.419 208.171 397.419 206.88V191.04C397.419 189.867 397.83 188.869 398.651 188.048C399.472 187.109 400.528 186.64 401.819 186.64H422.939C424.112 186.64 425.11 187.109 425.931 188.048C426.87 188.869 427.339 189.867 427.339 191.04V206.88C427.339 208.171 426.87 209.227 425.931 210.048C425.11 210.869 424.112 211.28 422.939 211.28H401.819Z" 
    />
  </g>
  
  <defs>
    <clipPath id="clip0_104:25">
      <rect width="512" height="512" fill="white" transform="translate(0.0688477)"/>
    </clipPath>
  </defs>
</svg>
