<svg viewBox="0 0 512 512" fill="none" xmlns="http://www.w3.org/2000/svg">
  <path fill-rule="evenodd" clip-rule="evenodd" fill="currentColor" d="M187.187 0C33.0385 0 0 33.0385 0 187.187V324.813C0 478.961 33.0385 512 187.187 512H324.813C478.961 512 512 478.961 512 324.813V187.187C512 33.0385 478.961 0 324.813 0H187.187ZM398.758 314.768C399.58 315.589 400.636 316 401.926 316H422.694C423.985 316 425.041 315.589 425.862 314.768C426.684 313.829 427.094 312.773 427.094 311.6V228.88C427.094 227.589 426.684 226.533 425.862 225.712C425.041 224.891 423.985 224.48 422.694 224.48H401.926C400.636 224.48 399.58 224.891 398.758 225.712C397.937 226.533 397.526 227.589 397.526 228.88V311.6C397.526 312.773 397.937 313.829 398.758 314.768ZM398.582 210.048C399.404 210.869 400.46 211.28 401.75 211.28H422.87C424.044 211.28 425.041 210.869 425.862 210.048C426.801 209.227 427.27 208.171 427.27 206.88V191.04C427.27 189.867 426.801 188.869 425.862 188.048C425.041 187.109 424.044 186.64 422.87 186.64H401.75C400.46 186.64 399.404 187.109 398.582 188.048C397.761 188.869 397.35 189.867 397.35 191.04V206.88C397.35 208.171 397.761 209.227 398.582 210.048ZM327.181 317.76C318.733 317.76 311.4 316.587 305.181 314.24C299.08 311.776 293.976 308.432 289.869 304.208C285.763 299.984 282.653 295.056 280.541 289.424C278.429 283.792 277.197 277.749 276.845 271.296C276.728 268.128 276.611 264.549 276.493 260.56V248.24C276.611 244.016 276.728 240.261 276.845 236.976C277.197 230.523 278.429 224.539 280.541 219.024C282.771 213.392 285.939 208.523 290.045 204.416C294.269 200.192 299.432 196.907 305.533 194.56C311.752 192.213 318.968 191.04 327.181 191.04C335.512 191.04 342.728 192.213 348.829 194.56C355.048 196.907 360.211 200.192 364.317 204.416C368.424 208.523 371.592 213.392 373.821 219.024C376.051 224.539 377.341 230.523 377.693 236.976C377.811 240.261 377.869 244.016 377.869 248.24C377.987 252.347 377.987 256.453 377.869 260.56C377.869 264.549 377.811 268.128 377.693 271.296C377.341 277.749 376.051 283.792 373.821 289.424C371.709 295.056 368.6 299.984 364.493 304.208C360.504 308.432 355.4 311.776 349.181 314.24C343.08 316.587 335.747 317.76 327.181 317.76ZM327.181 292.24C333.283 292.24 337.683 290.304 340.381 286.432C343.197 282.443 344.664 277.104 344.781 270.416C345.016 267.013 345.133 263.435 345.133 259.68C345.251 255.925 345.251 252.171 345.133 248.416C345.133 244.661 345.016 241.2 344.781 238.032C344.664 231.579 343.197 226.357 340.381 222.368C337.683 218.379 333.283 216.325 327.181 216.208C321.197 216.325 316.797 218.379 313.981 222.368C311.283 226.357 309.816 231.579 309.581 238.032C309.581 241.2 309.523 244.661 309.405 248.416V259.68C309.523 263.435 309.581 267.013 309.581 270.416C309.816 277.104 311.341 282.443 314.157 286.432C316.973 290.304 321.315 292.24 327.181 292.24ZM225.617 314.768C226.556 315.589 227.612 316 228.785 316H251.665C252.956 316 254.012 315.589 254.833 314.768C255.654 313.829 256.065 312.773 256.065 311.6V197.2C256.065 195.909 255.654 194.853 254.833 194.032C254.012 193.211 252.956 192.8 251.665 192.8H229.665C228.844 192.8 228.081 192.917 227.377 193.152C226.79 193.269 226.145 193.563 225.441 194.032L184.961 225.36C183.788 226.064 183.084 227.061 182.849 228.352C182.732 229.525 183.025 230.64 183.729 231.696L194.113 245.248C194.934 246.304 195.873 246.949 196.929 247.184C198.102 247.419 199.217 247.125 200.273 246.304L224.385 227.824V311.6C224.385 312.773 224.796 313.829 225.617 314.768ZM114.433 314.768C115.254 315.589 116.545 316 118.305 316H136.961C138.838 316 140.188 315.589 141.009 314.768C141.948 313.829 142.652 312.773 143.121 311.6L176.385 229.936C176.62 229.467 176.737 228.939 176.737 228.352C176.737 227.296 176.326 226.416 175.505 225.712C174.684 224.891 173.745 224.48 172.689 224.48H152.801C151.276 224.48 150.102 224.891 149.281 225.712C148.46 226.533 147.932 227.355 147.697 228.176L127.633 282.208L107.745 228.176C107.51 227.355 106.982 226.533 106.161 225.712C105.34 224.891 104.166 224.48 102.641 224.48H82.7531C81.5797 224.48 80.5824 224.891 79.7611 225.712C79.0571 226.416 78.7051 227.296 78.7051 228.352C78.7051 228.939 78.8224 229.467 79.0571 229.936L112.321 311.6C112.908 312.773 113.612 313.829 114.433 314.768Z"/>
</svg>
