<svg width="16" height="16" viewBox="0 0 16 16" fill="none" xmlns="http://www.w3.org/2000/svg">
<path d="M16 0H0V16H16V0Z" fill="#F7DF1E"/>
<path d="M10.7479 12.5001C11.0702 13.0263 11.4895 13.4131 12.2311 13.4131C12.8541 13.4131 13.2521 13.1017 13.2521 12.6715C13.2521 12.1559 12.8432 11.9733 12.1575 11.6734L11.7816 11.5121C10.6966 11.0499 9.97588 10.4709 9.97588 9.24673C9.97588 8.11911 10.8351 7.2607 12.1778 7.2607C13.1337 7.2607 13.821 7.59339 14.3162 8.46451L13.1454 9.21625C12.8876 8.75403 12.6095 8.57193 12.1778 8.57193C11.7374 8.57193 11.4583 8.8513 11.4583 9.21625C11.4583 9.6673 11.7377 9.8499 12.3827 10.1293L12.7586 10.2903C14.0361 10.8381 14.7573 11.3966 14.7573 12.6522C14.7573 14.0058 13.694 14.7474 12.2659 14.7474C10.8696 14.7474 9.9675 14.082 9.5261 13.2099L10.7479 12.5001ZM5.43671 12.6303C5.6729 13.0494 5.88776 13.4037 6.40433 13.4037C6.8983 13.4037 7.20992 13.2104 7.20992 12.4589V7.34654H8.71341V12.4792C8.71341 14.0361 7.80065 14.7446 6.46833 14.7446C5.26452 14.7446 4.56738 14.1216 4.21284 13.3713L5.43671 12.6303Z" fill="black"/>
</svg>
