<svg width="16" height="16" viewBox="0 0 16 16" fill="none" xmlns="http://www.w3.org/2000/svg">
<rect width="16" height="16" fill="white"/>
<path d="M0 16H16V0H0V16ZM12.8938 7.36277C13.3001 7.46427 13.6101 7.64476 13.8946 7.93925C14.0421 8.09675 14.2603 8.38374 14.2781 8.45224C14.2831 8.47223 13.5873 8.93972 13.1656 9.20146C13.1506 9.21146 13.0893 9.14571 13.0206 9.04397C12.8148 8.74398 12.5991 8.61473 12.2689 8.59198C11.7839 8.55898 11.4689 8.81297 11.4739 9.23696C11.4739 9.36146 11.4914 9.43495 11.5424 9.53695C11.6491 9.75794 11.8474 9.88994 12.4694 10.1594C13.6148 10.6519 14.1048 10.9769 14.4093 11.4394C14.7493 11.9549 14.8258 12.7779 14.5948 13.3898C14.3408 14.0553 13.7111 14.5073 12.8248 14.6573C12.5506 14.7055 11.9004 14.698 11.6059 14.6448C10.9634 14.5305 10.3539 14.2131 9.97794 13.7966C9.83044 13.6341 9.5437 13.2098 9.56145 13.1791C9.56895 13.1691 9.6352 13.1283 9.70895 13.0851L10.3032 12.7426L10.7632 12.4759L10.8597 12.6184C10.9942 12.8241 11.2889 13.1058 11.4666 13.1998C11.9771 13.4691 12.6781 13.4308 13.0233 13.1211C13.1708 12.9866 13.2316 12.8468 13.2316 12.6411C13.2316 12.4556 13.2091 12.3744 13.1123 12.2349C12.9878 12.0574 12.7339 11.9074 12.0124 11.5949C11.1869 11.2394 10.8314 11.0184 10.5064 10.6679C10.3184 10.4647 10.1407 10.1397 10.0669 9.86794C10.0059 9.64195 9.99069 9.07547 10.0389 8.84697C10.2089 8.047 10.8109 7.49327 11.6796 7.32827C11.9616 7.27502 12.6171 7.29527 12.8936 7.36377L12.8938 7.36277ZM9.13771 8.03025L9.14271 8.68523H7.06028V14.6025H5.58733V8.68523H3.50489V8.04275L3.52239 7.38277C3.52989 7.37277 4.79735 7.36777 6.3338 7.37027L9.12996 7.37777L9.13771 8.03025Z" fill="#007ACC"/>
</svg>
